#!OML:ASF F:\VICON\USERDATA\INSTALL\SteveWalk\SteveWalk.ASF
:FULLY-SPECIFIED
:DEGREES
181
root 0.11388 15.9632 -5.20026 18.3267 -4.47524 5.46914
lowerback -15.5675 0.699413 -8.85727
upperback -6.79994 2.26172 -3.41374
thorax 1.25087 1.24439 1.7523
lowerneck -7.76721 -1.68194 0.212492
upperneck 9.7896 -2.9467 5.92848
head 4.29259 -1.1126 1.60755
rclavicle 1.58282e-014 -1.43125e-014
rhumerus -31.2967 3.82547 -87.9972
rradius 55.1337
rwrist -16.9835
rhand -16.3577 -35.0544
rfingers 7.12502
rthumb 9.85502 -64.8037
lclavicle 1.58282e-014 -1.43125e-014
lhumerus -77.5053 35.4621 18.9493
lradius 10.8995
lwrist -57.2833
lhand -9.03574 -13.7628
lfingers 7.12502
lthumb 16.912 15.5209
rfemur -16.9791 -2.67382 12.9524
rtibia 65.4956
rfoot 12.5862 9.75079
rtoes -9.47874
lfemur -47.8992 -1.2011 -27.4889
ltibia 42.2104
lfoot -12.3591 -1.50825
ltoes -8.63246
182
root 0.127323 15.9941 -4.99072 18.4408 -4.83437 5.29708
lowerback -15.6992 0.728656 -8.54931
upperback -6.81325 2.26786 -3.36443
thorax 1.32032 1.23955 1.63829
lowerneck -7.76707 -1.57311 0.18265
upperneck 9.88118 -2.80952 5.99879
head 4.31782 -1.04015 1.64243
rclavicle -1.20016e-014 -7.15625e-015
rhumerus -32.0493 3.01244 -88.1998
rradius 53.329
rwrist -16.7868
rhand -15.9008 -31.7664
rfingers 7.12502
rthumb 10.2959 -61.4944
lclavicle -1.20016e-014 -7.15625e-015
lhumerus -75.9039 36.1846 21.2086
lradius 10.9497
lwrist -55.6817
lhand -9.43728 -12.8412
lfingers 7.12502
lthumb 16.5255 16.4751
rfemur -19.2107 -3.06847 13.018
rtibia 67.9873
rfoot 9.96258 8.47194
rtoes -11.3559
lfemur -47.1211 -1.02706 -27.5023
ltibia 42.2518
lfoot -13.2929 -0.733891
ltoes -10.8708
183
root 0.132998 16.0284 -4.78714 18.5088 -4.96641 5.32528
lowerback -15.7239 0.634745 -8.47038
upperback -6.85439 2.13169 -3.36274
thorax 1.30522 1.17137 1.57482
lowerneck -7.45881 -1.39931 0.313485
upperneck 9.7555 -2.57284 5.96403
head 4.21862 -0.929254 1.62645
rclavicle -9.36773e-015 -5.56597e-015
rhumerus -32.8817 2.32021 -88.5013
rradius 51.9134
rwrist -16.8864
rhand -15.6823 -32.3076
rfingers 7.12502
rthumb 10.5066 -62.025
lclavicle -9.36773e-015 -5.56597e-015
lhumerus -75.0648 37.2312 21.9534
lradius 10.8689
lwrist -55.696
lhand -9.8188 -12.8055
lfingers 7.12502
lthumb 16.1581 16.541
rfemur -21.3865 -3.43338 13.0659
rtibia 70.248
rfoot 8.17073 7.11301
rtoes -10.6878
lfemur -46.2496 -0.920618 -27.6803
ltibia 42.1188
lfoot -14.0144 -0.61491
ltoes -11.4639
184
root 0.138699 16.0677 -4.57992 18.3641 -5.00636 5.48827
lowerback -15.5858 0.522949 -8.51757
upperback -6.76448 1.98303 -3.39511
thorax 1.3399 1.09409 1.542
lowerneck -7.33101 -1.27746 0.439621
upperneck 9.15777 -2.37542 5.80224
head 4.43986 -0.864479 1.74608
rclavicle -2.09966e-014 2.22639e-014
rhumerus -33.4358 1.73125 -88.8036
rradius 50.3237
rwrist -17.1986
rhand -16.5773 -31.401
rfingers 7.12502
rthumb 9.6432 -61.1603
lclavicle -2.09966e-014 2.22639e-014
lhumerus -74.4616 38.6293 22.1054
lradius 10.7769
lwrist -56.4967
lhand -10.3627 -13.6638
lfingers 7.12502
lthumb 15.6343 15.7244
rfemur -23.1993 -3.73654 13.003
rtibia 72.0865
rfoot 6.9168 5.7899
rtoes -7.58838
lfemur -45.0371 -0.930798 -27.938
ltibia 41.7585
lfoot -14.4858 -0.673417
ltoes -10.7718
185
root 0.148348 16.1077 -4.36418 18.1156 -4.60135 5.53038
lowerback -15.4311 0.320296 -8.33605
upperback -6.54358 1.68976 -3.33449
thorax 1.52493 0.934544 1.45982
lowerneck -7.28814 -1.20333 0.464207
upperneck 8.88851 -2.25829 5.76392
head 4.3284 -0.814476 1.73208
rclavicle -8.92046e-015 2.22639e-014
rhumerus -33.949 1.29794 -89.1105
rradius 48.9799
rwrist -18.0444
rhand -16.8527 -37.6365
rfingers 7.12502
rthumb 9.37743 -67.408
lclavicle -8.92046e-015 2.22639e-014
lhumerus -72.2519 39.3759 24.8791
lradius 10.8664
lwrist -55.3617
lhand -10.7752 -14.2372
lfingers 7.12502
lthumb 15.2371 15.1816
rfemur -24.5581 -4.34353 13.1799
rtibia 73.5061
rfoot 5.12886 4.69409
rtoes -6.37647
lfemur -43.5867 -1.25461 -27.9738
ltibia 41.2624
lfoot -14.9306 -0.558306
ltoes -10.8411
186
root 0.154974 16.1499 -4.14993 17.861 -3.9157 5.41233
lowerback -15.1942 0.0399437 -7.99726
upperback -6.37294 1.25715 -3.18242
thorax 1.62525 0.709408 1.36192
lowerneck -7.04536 -1.14406 0.418233
upperneck 8.71368 -2.14771 5.66269
head 4.21121 -0.774172 1.70962
rclavicle -1.19271e-015 1.27222e-014
rhumerus -34.5265 0.570406 -89.1313
rradius 47.0501
rwrist -17.9765
rhand -16.9492 -36.748
rfingers 7.12502
rthumb 9.28438 -66.5236
lclavicle -1.19271e-015 1.27222e-014
lhumerus -68.385 38.9466 30.4021
lradius 11.2411
lwrist -52.0814
lhand -10.8793 -14.1928
lfingers 7.12502
lthumb 15.1368 15.2336
rfemur -25.8615 -5.11736 13.67
rtibia 74.5961
rfoot 3.55449 3.86421
rtoes -5.98153
lfemur -42.0472 -1.63342 -27.7877
ltibia 40.6761
lfoot -15.542 -0.597281
ltoes -10.965
187
root 0.15719 16.1934 -3.9459 17.5794 -3.45875 5.36672
lowerback -14.8277 -0.158988 -7.8052
upperback -6.26063 0.935235 -3.07374
thorax 1.5787 0.547229 1.31592
lowerneck -6.93714 -1.08937 0.370474
upperneck 8.7628 -2.06284 5.60022
head 4.20375 -0.737652 1.70225
rclavicle 2.22515e-014 -1.59028e-015
rhumerus -35.192 -0.624789 -88.8225
rradius 44.9434
rwrist -16.6966
rhand -16.4134 -33.3333
rfingers 7.12502
rthumb 9.80129 -63.0852
lclavicle 2.22515e-014 -1.59028e-015
lhumerus -64.981 38.5014 35.01
lradius 11.5369
lwrist -49.4326
lhand -11.4285 -14.5994
lfingers 7.12502
lthumb 14.6077 14.8661
rfemur -27.3708 -5.67668 14.0786
rtibia 75.4625
rfoot 2.31461 3.21093
rtoes -5.8963
lfemur -40.4939 -1.86696 -27.6941
ltibia 40.0324
lfoot -16.1002 -0.644889
ltoes -10.7313
188
root 0.159602 16.2298 -3.745 17.3279 -3.40788 5.37669
lowerback -14.5582 -0.238379 -7.78996
upperback -6.11545 0.807065 -2.96527
thorax 1.59781 0.480867 1.40054
lowerneck -7.16658 -1.02326 0.373461
upperneck 8.92975 -1.97752 5.49482
head 4.30516 -0.693649 1.67327
rclavicle -1.78409e-014 3.18055e-014
rhumerus -35.92 -1.8892 -88.4275
rradius 43.0969
rwrist -15.5725
rhand -15.8428 -32.8721
rfingers 7.12502
rthumb 10.3518 -62.5973
lclavicle -1.78409e-014 3.18055e-014
lhumerus -62.2344 38.7528 38.1779
lradius 11.6147
lwrist -48.0774
lhand -12.1312 -15.2686
lfingers 7.12502
lthumb 13.9306 14.2447
rfemur -29.0015 -5.84327 14.2979
rtibia 76.1354
rfoot 0.925303 2.80405
rtoes -6.041
lfemur -39.0088 -1.96203 -27.7033
ltibia 39.3816
lfoot -16.5462 -0.523402
ltoes -10.1773
189
root 0.165929 16.2629 -3.53967 17.1638 -3.50158 5.27192
lowerback -14.4474 -0.29325 -7.64994
upperback -6.01147 0.706323 -2.80093
thorax 1.65806 0.426309 1.47968
lowerneck -7.14493 -0.930451 0.346722
upperneck 8.93632 -1.83476 5.35158
head 4.29613 -0.631431 1.63753
rclavicle -2.52208e-015 -8.74653e-015
rhumerus -36.6977 -2.85951 -88.0541
rradius 41.2258
rwrist -14.9919
rhand -15.4982 -33.1184
rfingers 7.12502
rthumb 10.6842 -62.8267
lclavicle -2.52208e-015 -8.74653e-015
lhumerus -58.029 37.6285 43.7628
lradius 12.0349
lwrist -44.6968
lhand -12.3396 -14.4868
lfingers 7.12502
lthumb 13.7298 15.0402
rfemur -30.6202 -5.7486 14.5502
rtibia 76.5536
rfoot -0.345345 2.71514
rtoes -5.08568
lfemur -37.6689 -1.95977 -27.6414
ltibia 38.7684
lfoot -17.0956 -0.408071
ltoes -9.44108
